<?xml version="1.0" standalone="no"?><!DOCTYPE svg PUBLIC "-//W3C//DTD SVG 1.1//EN" "http://www.w3.org/Graphics/SVG/1.1/DTD/svg11.dtd"><svg t="1585714554658" class="icon" viewBox="0 0 1024 1024" version="1.1" xmlns="http://www.w3.org/2000/svg" p-id="2194" xmlns:xlink="http://www.w3.org/1999/xlink" width="200" height="200"><defs><style type="text/css"></style></defs><path d="M751.6928 1007.8464c-57.344 0-137.088-36.864-243.4304-112.6656-106.1376 73.0112-185.6512 108.5696-242.8416 108.5696l0 0c-33.8176 0-61.2096-12.7488-79.2576-36.8128-38.3488-51.2512-34.9952-150.3488 10.7008-311.168-143.3856-118.5024-199.2192-205.8752-175.6416-274.3296 23.2192-67.4304 118.0416-101.4272 297.9072-106.5728 63.2832-176.384 125.5168-258.688 195.2768-258.688 70.2976 0 131.712 83.3536 192.6912 261.9392 179.7888 8.1664 274.0992 43.776 296.192 111.6416 22.4512 68.8384-34.7392 155.264-179.8912 271.2832 43.0592 160.896 44.9536 259.8144 6.2464 310.6816C811.6992 995.3536 784.7424 1007.8464 751.6928 1007.8464zM508.7488 835.4048l14.1056 10.2656c128.6912 93.7984 195.5072 113.5104 228.8384 113.5104 23.6032 0 33.6896-9.6768 39.2448-16.9472 19.9936-26.3168 33.0496-96.9216-18.6624-283.8016l-4.352-15.6416 12.7488-10.0096c173.6448-136.1664 185.0112-201.2928 176.3072-227.968-8.4992-26.2144-54.7584-71.296-268.4928-78.7712l-16.896-0.5888-5.3504-16.0768c-70.4-212.7872-125.3632-244.5568-151.8592-244.5568-26.3936 0-81.6128 31.4368-154.9568 241.9712l-5.5808 16.0256-16.9472 0.3072c-213.7856 3.8656-260.736 48.1024-269.696 74.1376-9.1136 26.5216 1.2032 91.776 172.8 230.9376l12.5952 10.1632-4.5824 15.5648c-54.8352 186.624-42.7264 257.3568-22.912 283.8272 5.5808 7.3984 15.7696 17.3056 40.2688 17.3056l0 0c33.4592 0 100.3776-19.0464 229.0944-109.6192L508.7488 835.4048z" p-id="2195"></path></svg>